<svg id="artwork" xmlns="http://www.w3.org/2000/svg" viewBox="0 0 1280 408"><defs><style>.cls-1{fill:#454545;}.cls-2{fill:#b54f26;}</style></defs><title>jbpm_logo_rgb_fullcolor_default</title><path class="cls-1" d="M555.87,404.09a7.86,7.86,0,0,1-1.89-5.41V388.2a7.25,7.25,0,0,1,1.89-5.24,6.69,6.69,0,0,1,5-2h4.42q15.45,0,20.66-8.35t5.21-24.41v-167a7.35,7.35,0,0,1,2-5.57,7.2,7.2,0,0,1,5.2-2h14.2a6.94,6.94,0,0,1,5.21,2.13,7.5,7.5,0,0,1,2,5.4V348.57q0,57.65-53,57.65h-6A6.43,6.43,0,0,1,555.87,404.09Zm34.55-264.65a7.46,7.46,0,0,1-2-5.41V117a8.06,8.06,0,0,1,2-5.57,6.69,6.69,0,0,1,5.2-2.29h19.56a6.71,6.71,0,0,1,5.21,2.29,8.06,8.06,0,0,1,2.05,5.57v17a7.46,7.46,0,0,1-2.05,5.41,6.92,6.92,0,0,1-5.21,2.13H595.62A6.9,6.9,0,0,1,590.42,139.44Z"/><path class="cls-1" d="M673.55,341.86a7.84,7.84,0,0,1-1.89-5.41V122.57a8.32,8.32,0,0,1,1.89-5.73,6.43,6.43,0,0,1,5.05-2.13h86.13q33.45,0,50.48,16.7t17,43.57q0,18.35-8.2,30.62T804.8,223.45q13.56,6.88,22.72,21.29t9.15,33.08a69.71,69.71,0,0,1-8,33.41,58.83,58.83,0,0,1-23.82,23.91Q789,344,767.26,344H678.6A6.43,6.43,0,0,1,673.55,341.86ZM760,212q20.5,0,31.24-9.66t10.72-27q0-17-10.57-25.87T760,140.59H701.32V212Zm3.16,106.12q20.18,0,31.7-11.3t11.52-29q0-18-11.52-29.15t-31.7-11.13H701.32v80.57Z"/><path class="cls-1" d="M884,341.86a7.84,7.84,0,0,1-1.89-5.41V122.57a8.32,8.32,0,0,1,1.89-5.73,6.41,6.41,0,0,1,5-2.13h79.82q35.65,0,56,17.85t20.35,51.91q0,34.08-20.35,51.76t-56,17.68H912.07v82.54a7.46,7.46,0,0,1-2.05,5.41,6.92,6.92,0,0,1-5.21,2.13H889A6.41,6.41,0,0,1,884,341.86Zm83.29-114.48q47.64,0,47.65-42.91,0-21-11.84-32.09t-35.81-11.14H912.07v86.14Z"/><path class="cls-1" d="M1086.38,341.86a7.46,7.46,0,0,1-2.05-5.41V122.57a8.32,8.32,0,0,1,1.9-5.73,6.78,6.78,0,0,1,5.36-2.13h14.83c3.79,0,6.41,1.64,7.89,4.91l67.2,134,67.83-134q2.52-4.91,7.57-4.91h14.83a6.82,6.82,0,0,1,5.37,2.13,8.32,8.32,0,0,1,1.89,5.73V336.45a7.51,7.51,0,0,1-2,5.41,6.94,6.94,0,0,1-5.21,2.13h-14.51a6.43,6.43,0,0,1-5-2.13,7.84,7.84,0,0,1-1.89-5.41V173.67l-54,108.41q-3.16,6.89-10.1,6.88h-9.46q-6.63,0-10.1-6.88L1113,173.67V336.45a7.46,7.46,0,0,1-2,5.41,6.91,6.91,0,0,1-5.2,2.13h-14.2A6.94,6.94,0,0,1,1086.38,341.86Z"/><path class="cls-2" d="M146.64,91.27A280.28,280.28,0,0,0,91.3,92C48.48,108.38,30.7,212.33,30.7,212.33a34.42,34.42,0,0,0,5.82,1.15c11.79,1.32,22.5-3.21,22.5-3.2C77.46,136.42,109.75,118,109.75,118c63.24,21.88,135.7,245.52,135.7,245.52,96.84,35.56,106.07,10.25,106.07,10.25C223.05,92,146.64,91.27,146.64,91.27Z"/><path class="cls-2" d="M393,1C184.85,11.26,1,98.74,1,98.74c3.25,2.67,8,1.43,8,1.43S13.72,98.59,22.61,96c12.74-3.68,34-9.4,61.85-15.44q9.78-2.11,20.62-4.26c78.6-15.53,197.31-30.52,325.47-16.52h0c25-8.89,53.36-26,53.36-26C449,18.78,393,1,393,1Z"/></svg>