<svg id="artwork" xmlns="http://www.w3.org/2000/svg" viewBox="0 0 1024 1024"><defs><style>.cls-1{fill:#b54f26;}</style></defs><title>jbpm_icon_rgb_red</title><path class="cls-1" d="M309.21,299.42c-61.34-5.79-117.12,1.44-117.12,1.44C101.48,335.61,63.84,555.6,63.84,555.6A72.43,72.43,0,0,0,76.17,558c25,2.8,47.61-6.78,47.61-6.78,39-156.3,107.35-195.37,107.35-195.37C365,402.18,518.32,875.46,518.32,875.46c204.94,75.25,224.46,21.68,224.46,21.68C470.92,300.86,309.21,299.42,309.21,299.42Z"/><path class="cls-1" d="M830.61,108.37C390.06,130.09,1,315.21,1,315.21c6.87,5.65,16.83,3,16.82,3s10.09-3.33,28.9-8.77c27-7.78,72-19.89,130.91-32.66q20.7-4.49,43.63-9C387.6,234.92,638.82,203.2,910,232.84h0c53-18.81,112.93-55,112.93-55C949.11,146,830.61,108.37,830.61,108.37Z"/></svg>