<svg id="artwork" xmlns="http://www.w3.org/2000/svg" viewBox="0 0 1280 364"><defs><style>.cls-1{fill:#00586f;}.cls-2{fill:#fff;}.cls-3{fill:#f88d2b;}.cls-4{fill:#b8d8eb;}.cls-5{fill:#323e48;}</style></defs><title>kogito_logo_rgb_color_horizontal_default</title><path class="cls-1" d="M297.28,11.26A24.57,24.57,0,0,0,277.3,1c-1.43,0-46.91,7.93-46.91,7.93A24.5,24.5,0,0,0,213.58,20.5l-7.66,12.88C189,18.54,170.36,10.77,151.4,10.77s-37.6,7.77-54.52,22.61L89.23,20.5A24.5,24.5,0,0,0,72.42,8.88S26.94,1,25.51,1A24.54,24.54,0,0,0,4.09,37.45L21.65,68.89a40.24,40.24,0,0,0,21.08,59.38L10.3,278.33l141.1,79.83,141.11-79.83-32.43-150a40.25,40.25,0,0,0,21.07-59.39l17.56-31.44A24.63,24.63,0,0,0,297.28,11.26Z"/><path class="cls-2" d="M140.25,97.88l3,0,8.15,8.1,8.1-8.1,3,0c22.1.22,43.28,1.1,61.61,2.54C208.06,65.64,181.48,35.3,151.4,35.3S94.75,65.64,78.69,100.42C97,99,118.18,98.09,140.25,97.88Z"/><path class="cls-3" d="M129.28,243.93a40.7,40.7,0,0,0,45.85.18,203,203,0,0,0-45.85-.18Z"/><path class="cls-4" d="M214.17,238.19a64.8,64.8,0,0,0-6-14.5c-.42-.74-.87-1.46-1.32-2.18-.26-.42-.5-.84-.77-1.25-.42-.65-.87-1.27-1.31-1.9-.33-.47-.64-1-1-1.4s-.81-1-1.22-1.55-.83-1.08-1.27-1.6-.71-.8-1.07-1.2a65.21,65.21,0,0,0-28.26-18.72c-6,4-13.61,7.94-20.53,7.94s-14.49-3.9-20.52-7.94a65.26,65.26,0,0,0-28.28,18.74c-.35.39-.71.77-1,1.18s-.86,1.07-1.28,1.6-.82,1-1.21,1.54-.66,1-1,1.42c-.44.62-.89,1.24-1.3,1.88-.27.42-.52.85-.78,1.27-.45.72-.89,1.43-1.31,2.17a64.8,64.8,0,0,0-6,14.5c4.49-1.54,9.24-2.88,14.14-4.08l0-.05c.5-.13,1-.23,1.54-.35l5.92-16.52v15.2c.35-.07.71-.12,1.06-.18q3.28-.65,6.68-1.19l.83-.14c2.74-.42,5.52-.8,8.34-1.11L132,210.36v18.91c3-.27,6-.46,9.09-.6l1.38-.06c1.14-.05,2.28-.1,3.43-.12,1.83-.05,3.67-.08,5.52-.08s3.82,0,5.71.08l3,.11,2,.09c2.92.15,5.82.33,8.67.59V210.36l4.85,19.41.58.08c2.55.3,5.08.62,7.56,1,1,.14,1.89.32,2.83.48,1.38.23,2.76.47,4.12.73.6.11,1.22.2,1.82.32v-15.2l5.92,16.52c.43.11.84.23,1.27.33l1.93.46,0,0C206,235.64,210.2,236.82,214.17,238.19Z"/><path class="cls-3" d="M230.25,115.27l-3.49-.29c-18-1.53-39.19-2.48-61.4-2.76l-13.94,13.94-14-13.94c-22.19.28-43.34,1.23-61.35,2.76l-3.49.3c-6.35,17.38-9.94,35-9.94,49.68,0,24.45,9.9,36.41,25.88,42.27a80.29,80.29,0,0,1,30.14-23.82A7.15,7.15,0,0,1,129.89,175c5.63,5.21,16,12.55,21.51,12.55S167.46,180,172.91,175a7.15,7.15,0,0,1,11.25,8.45,80.21,80.21,0,0,1,30.14,23.82c16-5.86,25.88-17.82,25.88-42.27C240.18,150.24,236.59,132.66,230.25,115.27ZM113.48,162.35c-10.25.23-19.59-5.66-26.15-15.2,6.13-9.84,15.19-16.14,25.44-16.37s19.58,5.66,26.15,15.2C132.79,155.82,123.72,162.12,113.48,162.35Zm102-4.6L204.3,168.93l-11.19-11.18-11.18,11.18-11.18-11.18,11.18-11.19-11.18-11.18,11.18-11.18,11.18,11.18L204.3,124.2l11.18,11.18L204.3,146.56Z"/><path class="cls-4" d="M185,279.17,192,307l26.67-15.09V261l6.78,27.1,39.26-22.22L249.1,193.64c-5.22,11.85-14.22,20.54-27,25.9A78.6,78.6,0,0,1,228,234.33a14.3,14.3,0,0,1-18.43,17.39,155.22,155.22,0,0,0-16.33-4.54,54.9,54.9,0,0,1-82-.34,156.21,156.21,0,0,0-17.91,4.88,14.31,14.31,0,0,1-18.42-17.39,78.6,78.6,0,0,1,5.83-14.79c-12.77-5.37-21.76-14-27-25.91L38.09,265.87l39.27,22.22L84.14,261v30.93L110.81,307l7-27.84V311l33.63,19L185,311Z"/><path class="cls-2" d="M61.2,104.91A202.22,202.22,0,0,1,76.42,74.28q4.17-6.82,8.63-12.81L68.14,33,25.51,25.49,53,74.78l0,0a15.66,15.66,0,1,0,8.14,30.1Z"/><path class="cls-2" d="M249.74,74.81l0,0,27.53-49.29L234.67,33,217.76,61.47q4.45,6,8.63,12.81a202.22,202.22,0,0,1,15.22,30.63,15.66,15.66,0,1,0,8.13-30.1Z"/><path class="cls-5" d="M462.85,163.84l3.87-6.13,95.49-99.36h40.32l-96.45,100L608,291.58H568.34L483.17,178.35l-19.67,19,.32,94.19H431.88V58.35h31.94v93.87Z"/><path class="cls-5" d="M625.6,187.55a68.18,68.18,0,0,1,26.45-25.65q16.94-9.35,38.23-9.35t37.9,9.35A66.78,66.78,0,0,1,754,187.39a71.62,71.62,0,0,1,9.19,36.13A72.54,72.54,0,0,1,754,259.81a66.16,66.16,0,0,1-26,25.64q-16.77,9.36-38.39,9.36-21,0-37.74-8.87a65.4,65.4,0,0,1-26.29-25q-9.52-16.14-9.52-37.42A70,70,0,0,1,625.6,187.55Zm26.45,59.51a43.08,43.08,0,0,0,15.48,16.78A40.34,40.34,0,0,0,689.31,270q18.71,0,31-13.23t12.26-32.9q0-19.68-12.26-33.07t-31-13.39a39.33,39.33,0,0,0-21.94,6.3,44.76,44.76,0,0,0-15.32,16.93,50.64,50.64,0,0,0,0,46.45Z"/><path class="cls-5" d="M931.58,158V292.55a61,61,0,0,1-9.36,33.23q-9.36,14.84-26.61,23.55T855.12,358q-20.32,0-35-6.78t-29.52-20l17.75-20.64a89.27,89.27,0,0,0,21.93,15.64,54.66,54.66,0,0,0,24.2,5.32q22.26,0,34.35-10.64t12.42-28.71l.33-25.16q-7.43,12.57-21.78,20.16t-33.07,7.58a64.29,64.29,0,0,1-33.87-9.36A69.23,69.23,0,0,1,788.18,260a74.76,74.76,0,0,1,.33-72.42,69.86,69.86,0,0,1,25.64-25.65,67.73,67.73,0,0,1,34.52-9.35,73.72,73.72,0,0,1,31.61,6.77q14.52,6.78,21.62,17.42L904.16,158ZM885.12,260.61a43,43,0,0,0,16.46-24.51V209.64a43.9,43.9,0,0,0-17.1-23.38,49.1,49.1,0,0,0-29-8.88q-19.68,0-32.9,12.91t-13.23,32.9a46.33,46.33,0,0,0,22.91,40.49A44.85,44.85,0,0,0,855.44,270Q872.54,270,885.12,260.61Z"/><path class="cls-5" d="M974.16,98a18.44,18.44,0,0,1,12.58-4.84A17.87,17.87,0,0,1,999.16,98a16,16,0,0,1,0,23.87,17.92,17.92,0,0,1-12.42,4.84,18.48,18.48,0,0,1-12.58-4.84,15.72,15.72,0,0,1,0-23.87Zm26.77,60V291.58h-30V158Z"/><path class="cls-5" d="M1083.51,99.32v59H1120v23.87h-36.46V291.58h-30.32V182.22h-24.52V158.35h24.52v-59Z"/><path class="cls-5" d="M1141.41,187.55a68.27,68.27,0,0,1,26.46-25.65q16.94-9.35,38.22-9.35T1244,161.9a66.84,66.84,0,0,1,25.81,25.49,71.62,71.62,0,0,1,9.19,36.13,72.54,72.54,0,0,1-9.19,36.29,66.16,66.16,0,0,1-26,25.64q-16.78,9.36-38.39,9.36-21,0-37.74-8.87a65.49,65.49,0,0,1-26.3-25q-9.51-16.14-9.51-37.42A70,70,0,0,1,1141.41,187.55Zm26.46,59.51a43.08,43.08,0,0,0,15.48,16.78,40.34,40.34,0,0,0,21.78,6.13q18.7,0,31-13.23t12.26-32.9q0-19.68-12.26-33.07t-31-13.39a39.31,39.31,0,0,0-21.94,6.3,44.76,44.76,0,0,0-15.32,16.93,50.56,50.56,0,0,0,0,46.45Z"/></svg>